<svg width="11" height="9" viewBox="0 0 11 9" fill="none" xmlns="http://www.w3.org/2000/svg">
<path d="M4.41855 8.15058H4.41895H4.42479V8.15059L4.42634 8.15057C4.52399 8.14936 4.62033 8.12797 4.70931 8.08774C4.79818 8.04757 4.87779 7.98948 4.94316 7.91712C4.94325 7.91702 4.94334 7.91692 4.94342 7.91682L10.2724 2.08647C10.3401 2.01937 10.3936 1.93928 10.4296 1.85099C10.4661 1.7616 10.4839 1.66569 10.482 1.56916C10.48 1.47263 10.4584 1.37752 10.4184 1.28966C10.3783 1.2018 10.3208 1.12305 10.2492 1.05825C10.1776 0.993446 10.0936 0.94396 10.0022 0.91283C9.91078 0.8817 9.81399 0.869582 9.71774 0.877221C9.62149 0.884859 9.52782 0.912094 9.44249 0.957251C9.35838 1.00175 9.28413 1.06274 9.22413 1.13655L4.41191 6.4008L2.10094 3.93838C2.10094 3.93838 2.10094 3.93838 2.10093 3.93838C1.97227 3.80127 1.79442 3.72088 1.60649 3.7149C1.41856 3.70893 1.23595 3.77785 1.09884 3.90651C0.961722 4.03517 0.881335 4.21303 0.875359 4.40096C0.869382 4.5889 0.938305 4.7715 1.06697 4.90862L1.06704 4.9087L3.90147 7.92392C3.90156 7.92402 3.90165 7.92411 3.90174 7.92421C3.96773 7.99529 4.04762 8.05205 4.13645 8.09099C4.2254 8.12999 4.32143 8.15027 4.41855 8.15058Z" fill="white" stroke="white" stroke-width="0.25"/>
</svg>
