<svg width="20" height="21" viewBox="0 0 20 21" fill="none" xmlns="http://www.w3.org/2000/svg">
<path fill-rule="evenodd" clip-rule="evenodd" d="M10 20.5C5.28595 20.5 2.92893 20.5 1.46447 19.0355C0 17.5711 0 15.214 0 10.5C0 5.78595 0 3.42893 1.46447 1.96447C2.92893 0.5 5.28595 0.5 10 0.5C14.714 0.5 17.0711 0.5 18.5355 1.96447C20 3.42893 20 5.78595 20 10.5C20 15.214 20 17.5711 18.5355 19.0355C17.0711 20.5 14.714 20.5 10 20.5ZM14.0303 7.46967C14.3232 7.76256 14.3232 8.23744 14.0303 8.53033L9.03033 13.5303C8.73744 13.8232 8.26256 13.8232 7.96967 13.5303L5.96967 11.5303C5.67678 11.2374 5.67678 10.7626 5.96967 10.4697C6.26256 10.1768 6.73744 10.1768 7.03033 10.4697L8.5 11.9393L12.9697 7.46967C13.2626 7.17678 13.7374 7.17678 14.0303 7.46967Z" fill="white"/>
</svg>
