<svg width="14" height="14" viewBox="0 0 14 14" fill="none" xmlns="http://www.w3.org/2000/svg">
<path d="M6.9999 8.0499L1.9249 13.1249C1.79157 13.2582 1.6209 13.3289 1.4129 13.3369C1.20424 13.3456 1.0249 13.2749 0.874902 13.1249C0.724902 12.9749 0.649902 12.7999 0.649902 12.5999C0.649902 12.3999 0.724902 12.2249 0.874902 12.0749L5.9499 6.9999L0.874902 1.9249C0.741569 1.79157 0.670902 1.62057 0.662902 1.4119C0.654236 1.2039 0.724902 1.0249 0.874902 0.874902C1.0249 0.724902 1.1999 0.649902 1.3999 0.649902C1.5999 0.649902 1.7749 0.724902 1.9249 0.874902L6.9999 5.9499L12.0749 0.874902C12.2082 0.741569 12.3792 0.670569 12.5879 0.661902C12.7959 0.653902 12.9749 0.724902 13.1249 0.874902C13.2749 1.0249 13.3499 1.1999 13.3499 1.3999C13.3499 1.5999 13.2749 1.7749 13.1249 1.9249L8.0499 6.9999L13.1249 12.0749C13.2582 12.2082 13.3289 12.3789 13.3369 12.5869C13.3456 12.7956 13.2749 12.9749 13.1249 13.1249C12.9749 13.2749 12.7999 13.3499 12.5999 13.3499C12.3999 13.3499 12.2249 13.2749 12.0749 13.1249L6.9999 8.0499Z" fill="#242728"/>
</svg>
