<svg width="22" height="15" viewBox="0 0 22 15" fill="none" xmlns="http://www.w3.org/2000/svg">
<path d="M4.69995 14.125C3.96662 14.125 3.34595 13.871 2.83795 13.363C2.32928 12.8543 2.07495 12.2333 2.07495 11.5H0.699951V1.625C0.699951 1.15833 0.854285 0.771 1.16295 0.463C1.47095 0.154333 1.84995 0 2.29995 0H15.55V3.625H17.85L21.2999 8.275V11.5H19.7C19.7 12.2333 19.4459 12.8543 18.938 13.363C18.4293 13.871 17.8083 14.125 17.075 14.125C16.3416 14.125 15.721 13.871 15.213 13.363C14.7043 12.8543 14.45 12.2333 14.45 11.5H7.29995C7.29995 12.2333 7.04595 12.8543 6.53795 13.363C6.02928 13.871 5.41662 14.125 4.69995 14.125ZM4.69995 13.125C5.14995 13.125 5.52928 12.9667 5.83795 12.65C6.14595 12.3333 6.29995 11.95 6.29995 11.5C6.29995 11.05 6.14595 10.6667 5.83795 10.35C5.52928 10.0333 5.14995 9.875 4.69995 9.875C4.24995 9.875 3.86662 10.0333 3.54995 10.35C3.23328 10.6667 3.07495 11.05 3.07495 11.5C3.07495 11.95 3.23328 12.3333 3.54995 12.65C3.86662 12.9667 4.24995 13.125 4.69995 13.125ZM1.69995 10.5H2.34995C2.48328 10.0667 2.77095 9.68767 3.21295 9.363C3.65428 9.03767 4.14995 8.875 4.69995 8.875C5.21662 8.875 5.69995 9.03333 6.14995 9.35C6.59995 9.66667 6.89995 10.05 7.04995 10.5H14.55V1H2.29995C2.14995 1 2.01262 1.06267 1.88795 1.188C1.76262 1.31267 1.69995 1.45833 1.69995 1.625V10.5ZM17.075 13.125C17.525 13.125 17.9083 12.9667 18.225 12.65C18.5416 12.3333 18.7 11.95 18.7 11.5C18.7 11.05 18.5416 10.6667 18.225 10.35C17.9083 10.0333 17.525 9.875 17.075 9.875C16.625 9.875 16.2416 10.0333 15.925 10.35C15.6083 10.6667 15.45 11.05 15.45 11.5C15.45 11.95 15.6083 12.3333 15.925 12.65C16.2416 12.9667 16.625 13.125 17.075 13.125ZM15.55 8.5H20.25L17.2999 4.625H15.55V8.5Z" fill="#242728"/>
</svg>
