<svg width="56" height="38" viewBox="0 0 56 38" fill="none" xmlns="http://www.w3.org/2000/svg">
<path fill-rule="evenodd" clip-rule="evenodd" d="M31.4824 17.4227L34.0235 14.8623C35.2706 13.6173 37.3176 13.6173 38.5647 14.8623L38.6118 14.9092C44.1176 20.171 49.4118 25.6677 54.8 31.0469C56.4 32.6443 56.4 35.2282 54.8 36.802C53.2 38.3993 50.6118 38.3993 49.0353 36.802L46.1176 33.8892C46.1176 34.9698 45.6941 36.0033 44.9176 36.755C43.3176 38.3524 40.7294 38.3524 39.1529 36.755L36.1412 33.7483C36.1647 34.8523 35.7412 35.9329 34.9412 36.7315C33.3412 38.3289 30.7529 38.3289 29.1765 36.7315L21.5059 29.0738L14.6353 35.9564L14.5882 35.9094C12.9882 37.2248 11.0118 37.9295 8.91765 37.9295C3.97647 37.953 0 33.9597 0 29.0503C0 26.7248 0.894118 24.5167 2.51765 22.8489L15.3647 9.64746C13.4118 9.01323 11.8118 7.86221 10.7294 6.05347C9.85882 4.5736 9.52941 3.02325 9.17647 1.35546C9.12941 1.12055 9.22353 0.885654 9.41176 0.768203C9.6 0.627263 9.85882 0.627263 10.0471 0.768203C12.8706 2.62392 18.2353 1.75479 21.4118 1.23801C22.7765 1.02659 24.1176 0.768203 25.4824 0.556792C26.7294 0.345381 27.9765 0.157461 29.2471 0.0635003C31.0353 -0.0774402 33.5059 -0.10093 34.8471 1.28499C35.5294 1.98969 35.7882 2.92929 35.8118 3.89239C37.0353 4.22125 38.2353 4.99642 39.0118 5.95951C40.3294 7.55684 40.4941 9.50652 39.8353 11.4092C39.7647 11.6206 39.5765 11.7616 39.3647 11.7851C39.1529 11.8085 38.9412 11.7146 38.8 11.5267C37.3412 9.29511 34.5176 8.51993 32.3059 10.1877C30.0471 11.9495 29.9059 15.1676 31.4824 17.4227ZM39.0588 9.92934C39.2235 8.75484 38.9412 7.62731 38.1647 6.68771C37.4588 5.81857 36.2824 5.09038 35.1765 4.92595C34.8941 4.87897 34.6824 4.62058 34.6824 4.31521C34.7294 3.54003 34.6353 2.6709 34.0471 2.08365C33.0118 1.02659 30.7294 1.09706 29.3647 1.21451C28.1412 1.30848 26.9176 1.4964 25.6941 1.68432C24.3294 1.89573 22.9882 2.15412 21.6235 2.36553C18.3529 2.9058 13.7647 3.6105 10.5882 2.31855C10.8471 3.42258 11.1529 4.47964 11.7412 5.46622C12.8471 7.32194 14.5412 8.30852 16.6118 8.80182C16.8235 8.8488 16.9647 8.98974 17.0353 9.20115C17.1059 9.41256 17.0353 9.62397 16.8941 9.76491L3.36471 23.671C1.95294 25.1274 1.17647 27.0536 1.17647 29.0738C1.17647 30.0604 1.36471 31 1.71765 31.9161L20.9176 12.1844C21.5294 11.5736 22.4471 12.2783 21.7882 12.9596L2.25882 33.0201C3.01176 34.2886 4.11765 35.3456 5.45882 36.0033L30.6588 10.2112C30.9647 9.85887 31.2941 9.5535 31.6471 9.27162C33.9765 7.53335 37.1059 7.86221 39.0588 9.92934ZM14.3529 34.5704L30.6588 18.2683C29.6 16.8119 29.0824 14.9562 29.3412 13.1945L6.58824 36.4497C7.34118 36.6846 8.11765 36.802 8.91765 36.802C10.9176 36.802 12.8471 36.0268 14.2824 34.6409C14.3059 34.6174 14.3294 34.5939 14.3529 34.5704ZM51.0353 28.9328C51.0353 30.0134 50.6118 31.0234 49.8353 31.7986C49.0353 32.5973 47.9294 33.0201 46.8235 32.9966L49.8588 36.0268C50.9882 37.1544 52.8706 37.1544 54 36.0268C55.1294 34.8993 55.1294 33.0201 54 31.8926C53.0118 30.906 52 29.9194 51.0353 28.9328ZM49.3882 27.2885L46.0471 23.9529C46.0471 25.0335 45.6235 26.0905 44.8471 26.8657C44.0706 27.6409 43.0353 28.0637 41.9529 28.0637L44.9176 31.0234C44.9412 31.0469 44.9647 31.0704 44.9882 31.0939C46.1412 32.1275 47.9294 32.0805 49.0118 31C50 30.0134 50.1412 28.4395 49.3882 27.2885ZM36.8706 23.0368C37.9765 24.1408 39.1294 25.2449 40.2353 26.3489C41.3882 27.1946 43.0118 27.0536 44.0235 26.0435C45.0588 25.01 45.1765 23.3657 44.2824 22.1912L41.0118 18.926C41.0118 20.0066 40.5882 21.0636 39.8118 21.8388C39.0353 22.6375 37.9765 23.0603 36.8706 23.0368ZM39.2471 17.1878L37.7647 15.7079C36.9647 14.9092 35.6471 14.9092 34.8471 15.7079L32.1882 18.3623L34.8941 21.0636C34.9176 21.0871 34.9412 21.1106 34.9647 21.1341C36.1176 22.1677 37.9059 22.1207 38.9882 21.0402C40.0235 20.0066 40.1412 18.3388 39.2471 17.1878ZM31.3647 19.1844L27.2471 23.3187L30.1176 26.1845C31.2706 27.1711 33.0118 27.1006 34.0941 26.0201C35.1294 24.9865 35.2471 23.2952 34.3294 22.1442C33.3176 21.1576 32.3529 20.171 31.3647 19.1844ZM26.4235 24.1408L22.2824 28.2751L24.9412 30.9295C26.0706 32.057 27.9529 32.057 29.0824 30.9295C30.1647 29.8489 30.2353 28.0872 29.2235 26.9362C29.2 26.9127 29.1529 26.8657 29.1294 26.8422L26.4235 24.1408ZM31.9529 28.0167C33.0588 29.1207 34.1647 30.2013 35.2706 31.3053C36.4235 32.1745 38.0706 32.057 39.0824 31.0234C40.1176 29.9899 40.2353 28.2986 39.3176 27.1476L36.0706 23.9059C36.0706 24.9865 35.6706 26.0435 34.8706 26.8187C34.1176 27.6174 33.0588 28.0402 31.9529 28.0167ZM26.9412 32.9261L29.9529 35.9329C31.0824 37.0604 32.9647 37.0604 34.0941 35.9329C35.1765 34.8523 35.2471 33.0906 34.2353 31.9396C34.2118 31.9161 34.1647 31.8691 34.1412 31.8456L31.0824 28.7919C31.1059 29.8724 30.6824 30.953 29.8824 31.7281C29.1059 32.5033 28.0471 32.9261 26.9412 32.9261ZM37.0118 33.0436L39.9529 35.9799C41.0824 37.1074 42.9647 37.1074 44.0941 35.9799C45.0824 34.9933 45.2235 33.4194 44.4471 32.2684L41.1294 28.9563C41.1294 30.0369 40.7294 31.0939 39.9294 31.8691C39.1529 32.6208 38.0941 33.0436 37.0118 33.0436Z" fill="#0062C1"/>
</svg>
