<svg width="20" height="16" viewBox="0 0 20 16" fill="none" xmlns="http://www.w3.org/2000/svg">
<path fill-rule="evenodd" clip-rule="evenodd" d="M2.14288 1.66886C1.60494 1.66886 1.16886 2.10494 1.16886 2.64288V13.3572C1.16886 13.8951 1.60494 14.3312 2.14288 14.3312H17.8572C18.3951 14.3312 18.8312 13.8951 18.8312 13.3572V2.64288C18.8312 2.10494 18.3951 1.66886 17.8572 1.66886H2.14288ZM0.259766 2.64288C0.259766 1.60287 1.10287 0.759766 2.14288 0.759766H17.8572C18.8972 0.759766 19.7403 1.60287 19.7403 2.64288V13.3572C19.7403 14.3972 18.8972 15.2403 17.8572 15.2403H2.14288C1.10287 15.2403 0.259766 14.3972 0.259766 13.3572V2.64288Z" fill="#7D7D7D"/>
<path fill-rule="evenodd" clip-rule="evenodd" d="M0.259766 6.21431C0.259766 5.96327 0.463273 5.75977 0.714311 5.75977H19.2857C19.5368 5.75977 19.7403 5.96327 19.7403 6.21431C19.7403 6.46535 19.5368 6.66886 19.2857 6.66886H0.714311C0.463273 6.66886 0.259766 6.46535 0.259766 6.21431Z" fill="#7D7D7D"/>
<path fill-rule="evenodd" clip-rule="evenodd" d="M13.1169 11.2143C13.1169 10.9633 13.3205 10.7598 13.5715 10.7598H15.7143C15.9654 10.7598 16.1689 10.9633 16.1689 11.2143C16.1689 11.4653 15.9654 11.6689 15.7143 11.6689H13.5715C13.3205 11.6689 13.1169 11.4653 13.1169 11.2143Z" fill="#7D7D7D"/>
</svg>
