<svg width="16" height="16" viewBox="0 0 16 16" fill="none" xmlns="http://www.w3.org/2000/svg">
<path fill-rule="evenodd" clip-rule="evenodd" d="M1.60695 1.05645C3.14315 -0.479744 5.73551 -0.362964 6.80515 1.55366L7.39858 2.617C8.09708 3.86861 7.79942 5.44779 6.77689 6.48282C6.76327 6.50148 6.69109 6.60657 6.6821 6.79019C6.67063 7.02456 6.75386 7.56658 7.59364 8.40636C8.43315 9.24586 8.97509 9.3293 9.20956 9.3179C9.39333 9.30896 9.4985 9.23674 9.51719 9.2231C10.5522 8.20057 12.1314 7.90292 13.383 8.60142L14.4463 9.19485C16.363 10.2645 16.4797 12.8568 14.9435 14.393C14.1218 15.2148 13.0293 15.9449 11.7453 15.9935C9.84257 16.0657 6.68322 15.5743 3.55446 12.4455C0.425695 9.31678 -0.0656726 6.15743 0.00645955 4.2547C0.0551339 2.97075 0.785249 1.87816 1.60695 1.05645ZM5.60749 2.22206C5.05977 1.24063 3.58792 1.01515 2.57678 2.02628C1.86783 2.73524 1.40693 3.51776 1.37702 4.30666C1.31687 5.89339 1.70862 8.66004 4.52429 11.4757C7.33996 14.2914 10.1066 14.6831 11.6933 14.623C12.4822 14.5931 13.2648 14.1322 13.9737 13.4232C14.9848 12.4121 14.7594 10.9402 13.7779 10.3925L12.7146 9.79908C12.0531 9.42993 11.124 9.55585 10.4718 10.2081L10.4716 10.2083C10.4075 10.2723 9.99989 10.6526 9.2762 10.6878C8.53536 10.7239 7.63861 10.391 6.62381 9.37619C5.60868 8.36105 5.27591 7.46406 5.31219 6.72312C5.34763 5.99938 5.72821 5.59194 5.79189 5.52825L5.79192 5.52822C6.44415 4.87599 6.57008 3.94686 6.20092 3.2854L5.60749 2.22206Z" fill="white"/>
</svg>
