<svg width="32" height="32" viewBox="0 0 32 32" fill="none" xmlns="http://www.w3.org/2000/svg">
<path fill-rule="evenodd" clip-rule="evenodd" d="M16 32C24.8366 32 32 24.8366 32 16C32 7.16344 24.8366 0 16 0C7.16344 0 0 7.16344 0 16C0 24.8366 7.16344 32 16 32ZM17.6418 11.6399C17.2622 11.3734 16.8322 11.0976 16.3871 10.8269C14.6712 9.78352 13.8133 9.26182 13.0439 9.83943C12.2744 10.417 12.2045 11.6262 12.0646 14.0446C12.0251 14.7286 12 15.399 12 16.0001C12 16.6011 12.0251 17.2716 12.0646 17.9555C12.2045 20.3739 12.2744 21.5831 13.0439 22.1607C13.8133 22.7383 14.6712 22.2166 16.3871 21.1732C16.8322 20.9025 17.2622 20.6268 17.6418 20.3602C18.0745 20.0563 18.5454 19.6917 19.0202 19.3044C20.7401 17.9014 21.6 17.1999 21.6 16.0001C21.6 14.8003 20.7401 14.0988 19.0202 12.6958C18.5454 12.3085 18.0745 11.9438 17.6418 11.6399Z" fill="white"/>
</svg>
