<svg width="6" height="11" viewBox="0 0 6 11" fill="none" xmlns="http://www.w3.org/2000/svg">
<path fill-rule="evenodd" clip-rule="evenodd" d="M0.569113 9.91773C0.338459 9.67981 0.344348 9.29996 0.582267 9.06931L4.2639 5.5001L0.582267 1.93089C0.344348 1.70023 0.338458 1.32038 0.569112 1.08246C0.799766 0.844542 1.17962 0.838653 1.41754 1.06931L5.31635 4.84907C5.40316 4.9302 5.47363 5.02824 5.52268 5.1381C5.57342 5.25172 5.5999 5.37498 5.5999 5.5001C5.5999 5.62521 5.57342 5.74847 5.52268 5.86209C5.47363 5.97195 5.40316 6.06999 5.31635 6.15112L1.41754 9.93089C1.17962 10.1615 0.799766 10.1557 0.569113 9.91773Z" fill="#7D7D7D"/>
</svg>
