<svg width="20" height="20" viewBox="0 0 20 20" fill="none" xmlns="http://www.w3.org/2000/svg">
<path fill-rule="evenodd" clip-rule="evenodd" d="M7.5924 1.20027C7.34888 1.4078 7.22711 1.51158 7.09706 1.59874C6.79896 1.79854 6.46417 1.93721 6.1121 2.00672C5.95851 2.03705 5.79903 2.04977 5.48008 2.07522C4.6787 2.13918 4.278 2.17115 3.94371 2.28923C3.17051 2.56233 2.56233 3.17051 2.28923 3.94371C2.17115 4.278 2.13918 4.6787 2.07522 5.48008C2.04977 5.79903 2.03705 5.95851 2.00672 6.1121C1.93721 6.46417 1.79854 6.79896 1.59874 7.09706C1.51158 7.22711 1.40781 7.34887 1.20027 7.5924C0.678835 8.20428 0.418104 8.51023 0.265216 8.83011C-0.0884052 9.56995 -0.0884052 10.43 0.265216 11.1699C0.418105 11.4898 0.678828 11.7957 1.20027 12.4076C1.40778 12.6511 1.51158 12.7729 1.59874 12.9029C1.79854 13.201 1.93721 13.5358 2.00672 13.8879C2.03705 14.0415 2.04977 14.201 2.07522 14.5199C2.13918 15.3213 2.17115 15.722 2.28923 16.0563C2.56233 16.8295 3.17051 17.4377 3.94371 17.7108C4.278 17.8288 4.6787 17.8608 5.48008 17.9248C5.79903 17.9502 5.95851 17.963 6.1121 17.9933C6.46417 18.0628 6.79896 18.2015 7.09706 18.4013C7.22711 18.4884 7.34887 18.5922 7.5924 18.7997C8.20429 19.3212 8.51023 19.5819 8.83011 19.7348C9.56995 20.0884 10.43 20.0884 11.1699 19.7348C11.4898 19.5819 11.7957 19.3212 12.4076 18.7997C12.6511 18.5922 12.7729 18.4884 12.9029 18.4013C13.201 18.2015 13.5358 18.0628 13.8879 17.9933C14.0415 17.963 14.201 17.9502 14.5199 17.9248C15.3213 17.8608 15.722 17.8288 16.0563 17.7108C16.8295 17.4377 17.4377 16.8295 17.7108 16.0563C17.8288 15.722 17.8608 15.3213 17.9248 14.5199C17.9502 14.201 17.963 14.0415 17.9933 13.8879C18.0628 13.5358 18.2015 13.201 18.4013 12.9029C18.4884 12.7729 18.5922 12.6511 18.7997 12.4076C19.3212 11.7957 19.5819 11.4898 19.7348 11.1699C20.0884 10.43 20.0884 9.56995 19.7348 8.83011C19.5819 8.51023 19.3212 8.20429 18.7997 7.5924C18.5922 7.34887 18.4884 7.22711 18.4013 7.09706C18.2015 6.79896 18.0628 6.46417 17.9933 6.1121C17.963 5.95851 17.9502 5.79903 17.9248 5.48008C17.8608 4.6787 17.8288 4.278 17.7108 3.94371C17.4377 3.17051 16.8295 2.56233 16.0563 2.28923C15.722 2.17115 15.3213 2.13918 14.5199 2.07522C14.201 2.04977 14.0415 2.03705 13.8879 2.00672C13.5358 1.93721 13.201 1.79854 12.9029 1.59874C12.7729 1.51158 12.6511 1.40781 12.4076 1.20027C11.7957 0.678828 11.4898 0.418105 11.1699 0.265216C10.43 -0.0884052 9.56995 -0.0884052 8.83011 0.265216C8.51023 0.418105 8.20428 0.678833 7.5924 1.20027ZM13.8309 6.16959C14.1487 6.48742 14.1487 7.00273 13.8309 7.32056L7.32003 13.8314C7.0022 14.1493 6.48689 14.1493 6.16906 13.8314C5.85123 13.5136 5.85123 12.9983 6.16906 12.6805L12.6799 6.16959C12.9978 5.85176 13.5131 5.85176 13.8309 6.16959ZM13.798 12.7134C13.798 13.3127 13.3122 13.7985 12.7129 13.7985C12.1135 13.7985 11.6277 13.3127 11.6277 12.7134C11.6277 12.1141 12.1135 11.6282 12.7129 11.6282C13.3122 11.6282 13.798 12.1141 13.798 12.7134ZM7.28712 8.3728C7.88643 8.3728 8.37227 7.88696 8.37227 7.28765C8.37227 6.68834 7.88643 6.2025 7.28712 6.2025C6.68781 6.2025 6.20197 6.68834 6.20197 7.28765C6.20197 7.88696 6.68781 8.3728 7.28712 8.3728Z" fill="white"/>
</svg>
