<svg width="20" height="20" viewBox="0 0 20 20" fill="none" xmlns="http://www.w3.org/2000/svg">
<path fill-rule="evenodd" clip-rule="evenodd" d="M0.122639 10.816C0.410183 11.8186 1.18295 12.5914 2.72848 14.1369L4.55812 15.9665C7.24711 18.6555 8.5916 20 10.2623 20C11.933 20 13.2775 18.6555 15.9665 15.9665C18.6555 13.2775 20 11.933 20 10.2623C20 8.5916 18.6555 7.24711 15.9665 4.55812L14.1369 2.72848C12.5914 1.18295 11.8186 0.410183 10.816 0.122639C9.81337 -0.164906 8.7485 0.0808339 6.61875 0.572313L5.39057 0.85574C3.5988 1.26922 2.70292 1.47597 2.08944 2.08944C1.47597 2.70292 1.26922 3.59881 0.85574 5.39057L0.572313 6.61875C0.0808339 8.7485 -0.164906 9.81337 0.122639 10.816ZM8.12339 5.27098C8.91098 6.05856 8.91098 7.33549 8.12339 8.12308C7.33581 8.91066 6.05888 8.91066 5.27129 8.12308C4.48371 7.33549 4.48371 6.05856 5.27129 5.27098C6.05888 4.48339 7.33581 4.48339 8.12339 5.27098ZM17.0511 10.0511L10.0721 17.0303C9.7792 17.3232 9.30433 17.3232 9.01143 17.0303C8.71853 16.7375 8.71852 16.2626 9.01141 15.9697L15.9904 8.99043C16.2833 8.69753 16.7582 8.69752 17.0511 8.99041C17.344 9.2833 17.344 9.75817 17.0511 10.0511Z" fill="white"/>
</svg>
