<svg width="22" height="21" viewBox="0 0 22 21" fill="none" xmlns="http://www.w3.org/2000/svg">
<path d="M1 19.9024L2.42795 14.5977C1.27634 12.5312 0.910467 10.1198 1.39746 7.80597C1.88445 5.49214 3.19165 3.43108 5.07918 2.00101C6.96671 0.570935 9.30796 -0.132231 11.6733 0.020544C14.0386 0.173319 16.2694 1.17179 17.9563 2.83273C19.6432 4.49367 20.673 6.70567 20.8567 9.06282C21.0405 11.42 20.3659 13.7642 18.9567 15.6653C17.5475 17.5663 15.4983 18.8968 13.1851 19.4124C10.8718 19.9281 8.44973 19.5944 6.36326 18.4725L1 19.9024ZM6.62187 16.4874L6.95356 16.6837C8.46483 17.5772 10.23 17.9469 11.9739 17.7353C13.7179 17.5237 15.3426 16.7426 16.5951 15.5137C17.8475 14.2848 18.6572 12.6773 18.898 10.9415C19.1388 9.20567 18.7971 7.43918 17.9263 5.91727C17.0555 4.39535 15.7045 3.20351 14.0837 2.52748C12.4629 1.85144 10.6634 1.72919 8.96565 2.17976C7.26791 2.63034 5.7673 3.62843 4.69764 5.01851C3.62798 6.40859 3.04937 8.11256 3.05198 9.86489C3.05056 11.3179 3.45342 12.7427 4.21571 13.9808L4.42372 14.3229L3.62541 17.2837L6.62187 16.4874Z" fill="white"/>
<path fill-rule="evenodd" clip-rule="evenodd" d="M14.6723 11.2271C14.4779 11.0706 14.2502 10.9605 14.0066 10.9051C13.7631 10.8498 13.51 10.8505 13.2668 10.9074C12.9014 11.0588 12.6653 11.6308 12.4292 11.9168C12.3794 11.9854 12.3062 12.0334 12.2234 12.052C12.1406 12.0706 12.0539 12.0584 11.9794 12.0177C10.6416 11.4951 9.52024 10.5366 8.79745 9.29806C8.7358 9.22077 8.70663 9.12264 8.71606 9.02432C8.7255 8.926 8.77282 8.83517 8.84805 8.77095C9.1114 8.51091 9.30476 8.18883 9.41024 7.83449C9.43366 7.44365 9.34389 7.05434 9.15163 6.71298C9.003 6.2344 8.72013 5.80827 8.33646 5.48492C8.13857 5.39614 7.91915 5.36638 7.70468 5.39921C7.49021 5.43205 7.28984 5.52608 7.12776 5.66997C6.84636 5.91213 6.62301 6.21416 6.47415 6.55383C6.32529 6.89349 6.25471 7.26214 6.26761 7.63262C6.26848 7.84066 6.29491 8.04782 6.34632 8.24945C6.47686 8.73389 6.67762 9.19672 6.94223 9.6233C7.13315 9.95007 7.34146 10.2664 7.56626 10.571C8.29685 11.5714 9.21522 12.4207 10.2704 13.072C10.7999 13.4029 11.3658 13.6719 11.9569 13.8738C12.571 14.1515 13.249 14.2581 13.919 14.1823C14.3007 14.1246 14.6623 13.9743 14.9721 13.7445C15.2819 13.5147 15.5303 13.2125 15.6955 12.8645C15.7925 12.6542 15.822 12.4192 15.7798 12.1916C15.6786 11.7261 15.0546 11.4514 14.6723 11.2271Z" fill="white"/>
</svg>
