<svg width="30" height="30" viewBox="0 0 30 30" fill="none" xmlns="http://www.w3.org/2000/svg">
<g clip-path="url(#clip0_153_215)">
<path d="M15 0C6.71606 0 0 6.71606 0 15C0 23.2839 6.71606 30 15 30C23.2839 30 30 23.2839 30 15C30 6.71606 23.2839 0 15 0ZM24.0229 19.5111C24.0229 22.0215 21.9811 24.0634 19.4707 24.0634H10.5293C8.01923 24.0634 5.97707 22.0215 5.97707 19.5111V10.5698C5.97707 8.05967 8.01923 6.01751 10.5293 6.01751H19.4707C21.9811 6.01751 24.0229 8.05967 24.0229 10.5698V19.5111Z" fill="#F2F2F2"/>
<path fill-rule="evenodd" clip-rule="evenodd" d="M10.5292 7.98242H19.4706C20.8981 7.98242 22.0592 9.14354 22.0592 10.5707V19.5121C22.0592 20.9396 20.8978 22.1007 19.4706 22.1007H10.5292C9.10204 22.1007 7.94092 20.9393 7.94092 19.5121V10.5707C7.94092 9.14354 9.10204 7.98242 10.5292 7.98242ZM10.3524 15.0414C10.3524 17.6043 12.4373 19.6892 14.9999 19.6892C17.5625 19.6892 19.6477 17.604 19.6477 15.0414C19.6477 12.4788 17.5628 10.3939 14.9999 10.3939C12.4373 10.3939 10.3524 12.4788 10.3524 15.0414ZM18.6972 10.2552C18.6972 10.8615 19.1905 11.3548 19.7971 11.3548C20.4034 11.3548 20.8968 10.8615 20.8968 10.2552C20.8968 9.6489 20.4034 9.15558 19.7971 9.15558C19.1905 9.15558 18.6972 9.6489 18.6972 10.2552ZM12.316 15.0406C12.316 13.5613 13.5206 12.3574 14.9999 12.3574C16.4796 12.3574 17.6835 13.5617 17.6835 15.0406C17.6835 16.5206 16.4799 17.7249 14.9999 17.7249C13.5206 17.7249 12.316 16.5206 12.316 15.0406Z" fill="#F2F2F2"/>
</g>
<defs>
<clipPath id="clip0_153_215">
<rect width="30" height="30" fill="white"/>
</clipPath>
</defs>
</svg>
