<svg width="32" height="32" viewBox="0 0 32 32" fill="none" xmlns="http://www.w3.org/2000/svg">
<path d="M32 16C32 24.8366 24.8366 32 16 32C7.16344 32 0 24.8366 0 16C0 7.16344 7.16344 0 16 0C24.8366 0 32 7.16344 32 16Z" fill="#005CB6"/>
<path d="M7 25.6585L8.33871 20.6853C7.25907 18.748 6.91606 16.4873 7.37262 14.3181C7.82917 12.1489 9.05467 10.2166 10.8242 8.87595C12.5938 7.53525 14.7887 6.87603 17.0062 7.01926C19.2237 7.16249 21.3151 8.09855 22.8965 9.65568C24.478 11.2128 25.4434 13.2866 25.6157 15.4964C25.7879 17.7062 25.1555 19.9039 23.8344 21.6862C22.5133 23.4684 20.5921 24.7157 18.4235 25.1991C16.2548 25.6826 13.9841 25.3697 12.0281 24.318L7 25.6585ZM12.2705 22.457L12.5815 22.641C13.9983 23.4786 15.6531 23.8252 17.2881 23.6268C18.923 23.4284 20.4462 22.6962 21.6204 21.5441C22.7945 20.392 23.5536 18.8849 23.7793 17.2576C24.0051 15.6303 23.6848 13.9742 22.8684 12.5474C22.0521 11.1206 20.7854 10.0033 19.2659 9.36951C17.7464 8.73573 16.0594 8.62111 14.4678 9.04353C12.8762 9.46594 11.4693 10.4017 10.4665 11.7049C9.46373 13.0081 8.92129 14.6055 8.92373 16.2483C8.9224 17.6105 9.30008 18.9463 10.0147 20.107L10.2097 20.4277L9.46132 23.2035L12.2705 22.457Z" fill="white"/>
<path fill-rule="evenodd" clip-rule="evenodd" d="M19.8178 17.5256C19.6355 17.3789 19.4221 17.2757 19.1937 17.2238C18.9654 17.1719 18.7282 17.1726 18.5002 17.2259C18.1576 17.3679 17.9362 17.9041 17.7149 18.1722C17.6682 18.2365 17.5996 18.2816 17.522 18.299C17.4444 18.3164 17.363 18.305 17.2932 18.2668C16.039 17.7769 14.9878 16.8783 14.3101 15.7171C14.2523 15.6447 14.225 15.5527 14.2338 15.4605C14.2427 15.3683 14.287 15.2832 14.3576 15.223C14.6045 14.9792 14.7857 14.6772 14.8846 14.345C14.9066 13.9786 14.8224 13.6137 14.6422 13.2936C14.5028 12.845 14.2377 12.4455 13.878 12.1423C13.6924 12.0591 13.4867 12.0312 13.2857 12.062C13.0846 12.0928 12.8968 12.1809 12.7448 12.3158C12.481 12.5428 12.2716 12.826 12.132 13.1444C11.9925 13.4629 11.9263 13.8085 11.9384 14.1558C11.9392 14.3508 11.964 14.545 12.0122 14.7341C12.1346 15.1882 12.3228 15.6221 12.5709 16.0221C12.7499 16.3284 12.9451 16.625 13.1559 16.9105C13.8408 17.8484 14.7018 18.6447 15.691 19.2552C16.1874 19.5654 16.718 19.8177 17.2722 20.0069C17.8479 20.2672 18.4835 20.3672 19.1116 20.2961C19.4694 20.2421 19.8085 20.1011 20.0989 19.8857C20.3893 19.6703 20.6222 19.3869 20.777 19.0607C20.868 18.8636 20.8957 18.6432 20.8561 18.4298C20.7612 17.9935 20.1762 17.7359 19.8178 17.5256Z" fill="white"/>
</svg>
