<svg width="30" height="30" viewBox="0 0 30 30" fill="none" xmlns="http://www.w3.org/2000/svg">
<path d="M18.3333 15L13.3333 17.9167V12.0833L18.3333 15Z" fill="#F2F2F2"/>
<path fill-rule="evenodd" clip-rule="evenodd" d="M15 30C23.2843 30 30 23.2843 30 15C30 6.71573 23.2843 0 15 0C6.71573 0 0 6.71573 0 15C0 23.2843 6.71573 30 15 30ZM23.3333 15C23.3333 15 23.3333 11.9 22.9525 10.415C22.7433 9.59667 22.125 8.95167 21.3375 8.73C19.9133 8.33333 15 8.33333 15 8.33333C15 8.33333 10.0892 8.33333 8.6625 8.73C7.87833 8.94833 7.25917 9.59417 7.0475 10.415C6.66667 11.9 6.66667 15 6.66667 15C6.66667 15 6.66667 18.1 7.0475 19.585C7.25667 20.4033 7.875 21.0483 8.6625 21.27C10.0892 21.6667 15 21.6667 15 21.6667C15 21.6667 19.9133 21.6667 21.3375 21.27C22.1217 21.0517 22.7408 20.4058 22.9525 19.585C23.3333 18.1 23.3333 15 23.3333 15Z" fill="#F2F2F2"/>
</svg>
